<svg width="17" height="15" viewBox="0 0 17 15" fill="none" xmlns="http://www.w3.org/2000/svg">
<path d="M7.06687 5.89285C7.69162 5.89285 8.29078 5.66709 8.73254 5.26523C9.17431 4.86336 9.42249 4.31832 9.42249 3.75C9.42249 3.18168 9.17431 2.63664 8.73254 2.23477C8.29078 1.83291 7.69162 1.60715 7.06687 1.60715C6.44212 1.60715 5.84295 1.83291 5.40119 2.23477C4.95942 2.63664 4.71124 3.18168 4.71124 3.75C4.71124 4.31832 4.95942 4.86336 5.40119 5.26523C5.84295 5.66709 6.44212 5.89285 7.06687 5.89285ZM7.06687 4.82143C6.75449 4.82143 6.45491 4.70854 6.23403 4.50761C6.01315 4.30668 5.88905 4.03416 5.88905 3.75C5.88905 3.46584 6.01315 3.19332 6.23403 2.99239C6.45491 2.79146 6.75449 2.67857 7.06687 2.67857C7.37924 2.67857 7.67882 2.79146 7.8997 2.99239C8.12059 3.19332 8.24468 3.46584 8.24468 3.75C8.24468 4.03416 8.12059 4.30668 7.8997 4.50761C7.67882 4.70854 7.37924 4.82143 7.06687 4.82143Z" fill="#231F20"/>
<path d="M4.12237 6.42856C3.65381 6.42856 3.20443 6.59788 2.87311 6.89928C2.54179 7.20068 2.35565 7.60947 2.35565 8.03571C2.35565 8.38714 2.40276 9.15857 3.08943 9.83464C3.7808 10.5129 4.99984 10.9821 7.06454 10.9821C9.12689 10.9821 10.3483 10.5171 11.0397 9.84214C11.731 9.16821 11.7781 8.39571 11.7781 8.03571C11.7781 7.82465 11.7324 7.61567 11.6437 7.42068C11.5549 7.22569 11.4247 7.04852 11.2607 6.89928C11.0966 6.75004 10.9019 6.63166 10.6875 6.5509C10.4732 6.47013 10.2434 6.42856 10.0114 6.42856H4.12237ZM3.53346 8.03571C3.53346 7.89363 3.59551 7.75736 3.70595 7.6569C3.81639 7.55643 3.96618 7.49999 4.12237 7.49999H10.0114C10.1676 7.49999 10.3174 7.55643 10.4278 7.6569C10.5383 7.75736 10.6003 7.89363 10.6003 8.03571C10.6003 8.30571 10.5615 8.7375 10.1787 9.11143C9.79706 9.48428 8.95493 9.91071 7.06454 9.91071C5.17533 9.91071 4.33555 9.48107 3.95512 9.10714C3.57115 8.73 3.53346 8.29714 3.53346 8.03571Z" fill="#231F20"/>
<path d="M0 3.21429C0 2.3618 0.372272 1.54424 1.03492 0.941443C1.69757 0.338647 2.59631 0 3.53343 0H10.6003C11.5374 0 12.4362 0.338647 13.0988 0.941443C13.7615 1.54424 14.1337 2.3618 14.1337 3.21429V9.64286C14.1337 10.4953 13.7615 11.3129 13.0988 11.9157C12.4362 12.5185 11.5374 12.8571 10.6003 12.8571H3.53343C2.59631 12.8571 1.69757 12.5185 1.03492 11.9157C0.372272 11.3129 0 10.4953 0 9.64286V3.21429ZM3.53343 1.07143C2.90868 1.07143 2.30952 1.29719 1.86776 1.69906C1.42599 2.10092 1.17781 2.64597 1.17781 3.21429V9.64286C1.17781 10.2112 1.42599 10.7562 1.86776 11.1581C2.30952 11.56 2.90868 11.7857 3.53343 11.7857H10.6003C11.2251 11.7857 11.8242 11.56 12.266 11.1581C12.7077 10.7562 12.9559 10.2112 12.9559 9.64286V3.21429C12.9559 2.64597 12.7077 2.10092 12.266 1.69906C11.8242 1.29719 11.2251 1.07143 10.6003 1.07143H3.53343Z" fill="#231F20"/>
<path d="M5.8892 15C5.39198 15.0005 4.90026 14.9053 4.44636 14.7207C3.99246 14.536 3.58665 14.2661 3.25562 13.9286H11.1894C12.2827 13.9286 13.3312 13.5335 14.1043 12.8302C14.8774 12.127 15.3117 11.1731 15.3117 10.1786V2.96143C16.0349 3.55071 16.4895 4.40571 16.4895 5.35714V10.1786C16.4895 11.4573 15.9311 12.6836 14.9371 13.5878C13.9432 14.492 12.595 15 11.1894 15H5.8892Z" fill="#231F20"/>
</svg>
