<svg width="13" height="16" viewBox="0 0 13 16" fill="none" xmlns="http://www.w3.org/2000/svg">
<path d="M5.62161 5.11383C6.97747 5.11383 8.287 5.5591 9.30903 6.36752C9.978 6.89669 10.4953 7.55801 10.8258 8.29257L11.2006 7.95158C11.6123 7.57711 12.2796 7.57711 12.6913 7.95158C13.1029 8.32605 13.1029 8.93312 12.6913 9.30759L10.9345 10.9057C10.7341 11.088 10.4648 11.1865 10.1891 11.1865C10.0925 11.1865 9.99509 11.1744 9.89961 11.1496L7.44015 10.5103C6.88041 10.3649 6.55629 9.83415 6.71624 9.32497C6.87619 8.81582 7.45948 8.52089 8.01931 8.66648L8.80058 8.86955C8.23205 7.77847 7.00176 7.03152 5.62161 7.03152C3.68426 7.03152 2.1081 8.46532 2.1081 10.2277C2.1081 11.99 3.68426 13.4238 5.62161 13.4238C6.20375 13.4238 6.67566 13.8531 6.67566 14.3827C6.67566 14.9122 6.20375 15.3415 5.62161 15.3415C2.52182 15.3415 0 13.0474 0 10.2277C0 7.40791 2.52182 5.11383 5.62161 5.11383Z" fill="#231F20"/>
<path fill-rule="evenodd" clip-rule="evenodd" d="M1.40546 2.87654H10.5406L10.2507 1.68957C10.0074 0.694764 9.05568 0 7.93531 0H4.01072C2.89035 0 1.93863 0.694764 1.69532 1.68957L1.40546 2.87654ZM7.37835 0.958893H4.56755C4.17944 0.958893 3.86485 1.24507 3.86485 1.59812C3.86485 1.95118 4.17944 2.23735 4.56755 2.23735H7.37835C7.76646 2.23735 8.08105 1.95118 8.08105 1.59812C8.08105 1.24507 7.76646 0.958893 7.37835 0.958893Z" fill="#231F20"/>
</svg>
