<svg width="17" height="15" viewBox="0 0 17 15" fill="none" xmlns="http://www.w3.org/2000/svg">
<path d="M3.70508 14.2741C3.59139 14.3718 3.45185 14.4353 3.30285 14.4574C3.15384 14.4795 3.00156 14.4591 2.86388 14.3986C2.7262 14.3382 2.60884 14.2402 2.52557 14.1162C2.44229 13.9922 2.39657 13.8473 2.39377 13.6985V11.9442C1.97374 11.9442 1.57092 11.7794 1.27392 11.4861C0.976913 11.1927 0.810059 10.7949 0.810059 10.38V4.90528C0.810059 4.49042 0.976913 4.09256 1.27392 3.79921C1.57092 3.50587 1.97374 3.34107 2.39377 3.34107H11.1042C11.5242 3.34107 11.927 3.50587 12.224 3.79921C12.521 4.09256 12.6879 4.49042 12.6879 4.90528V10.38C12.6879 10.7949 12.521 11.1927 12.224 11.4861C11.927 11.7794 11.5242 11.9442 11.1042 11.9442H7.14728L3.70508 14.2741ZM4.37341 11.8551C4.44556 11.8547 4.51642 11.8361 4.57929 11.8011L6.44411 10.52C6.57682 10.4289 6.73461 10.38 6.89626 10.38H10.3123C10.5223 10.38 10.7237 10.2976 10.8722 10.1509C11.0207 10.0043 11.1042 9.80534 11.1042 9.59791V5.68738C11.1042 5.47996 11.0207 5.28103 10.8722 5.13435C10.7237 4.98768 10.5223 4.90528 10.3123 4.90528H3.18562C2.97561 4.90528 2.7742 4.98768 2.6257 5.13435C2.4772 5.28103 2.39377 5.47996 2.39377 5.68738V9.59791C2.39377 10.0202 2.73347 10.3659 3.18562 10.38C3.51028 10.3925 3.74547 10.4449 3.85395 10.5568C3.95531 10.6616 3.96085 10.8383 3.97748 11.1746C3.97986 11.2239 3.97986 11.3131 3.97748 11.464C3.97748 11.5677 4.01919 11.6672 4.09344 11.7405C4.16769 11.8139 4.2684 11.8551 4.37341 11.8551ZM13.4797 8.04621C13.4772 8.14266 13.4772 8.23915 13.4797 8.33559V8.04621C13.4956 7.70991 13.5019 7.53315 13.6033 7.42835C13.7118 7.31651 13.9469 7.26411 14.2716 7.2516C14.7237 7.23752 15.0635 6.89183 15.0635 6.46949V2.55896C15.0635 2.35154 14.98 2.1526 14.8315 2.00593C14.683 1.85926 14.4816 1.77686 14.2716 1.77686H7.1449C6.93489 1.77686 6.73348 1.85926 6.58497 2.00593C6.43647 2.1526 6.35304 2.35154 6.35304 2.55896H4.76933V1.77686C4.76933 1.362 4.93619 0.96414 5.23319 0.670793C5.5302 0.377447 5.93302 0.212646 6.35304 0.212646H15.0635C15.4835 0.212646 15.8863 0.377447 16.1833 0.670793C16.4803 0.96414 16.6472 1.362 16.6472 1.77686V7.2516C16.6472 7.66645 16.4803 8.06431 16.1833 8.35766C15.8863 8.651 15.4835 8.81581 15.0635 8.81581V10.5701C15.0606 10.7189 15.0149 10.8638 14.9317 10.9878C14.8484 11.1118 14.731 11.2098 14.5933 11.2702C14.4557 11.3306 14.3034 11.351 14.1544 11.329C14.0054 11.3069 13.8658 11.2433 13.7521 11.1457L13.4797 10.9611V8.047V8.04621Z" fill="#231F20"/>
</svg>
