<svg width="15" height="19" viewBox="0 0 15 19" fill="none" xmlns="http://www.w3.org/2000/svg">
<path d="M12.6432 12.6539V12.9833L12.8768 13.2155L14.0888 14.4204C14.119 14.4504 14.1269 14.474 14.1298 14.4909C14.1335 14.5124 14.1316 14.5414 14.1185 14.5724C14.1055 14.6035 14.0856 14.6267 14.0656 14.6407C14.0492 14.6523 14.0243 14.664 13.98 14.664H1.60616C1.56197 14.664 1.53852 14.6524 1.52382 14.642C1.50553 14.6291 1.48665 14.6073 1.47417 14.5769C1.4617 14.5466 1.45963 14.5174 1.46365 14.4947C1.46691 14.4763 1.47562 14.4513 1.50674 14.4204L2.71875 13.2155L2.95235 12.9833V12.6539V7.98402C2.95235 5.38693 4.31006 3.3843 6.56999 2.85201L7.18031 2.70827V2.08125V1.44614C7.18031 1.11269 7.45084 0.837021 7.79778 0.837021C8.14471 0.837021 8.41524 1.11269 8.41524 1.44614V2.08125V2.70776L9.02496 2.85187C11.2766 3.38405 12.6432 5.39697 12.6432 7.98402V12.6539ZM8.5307 17.1817C8.33742 17.3575 8.0802 17.466 7.79778 17.466C7.52386 17.466 7.26138 17.3637 7.06157 17.1817H8.5307Z" stroke="#231F20" stroke-width="1.58371"/>
</svg>
