<svg width="19" height="22" viewBox="0 0 19 22" fill="none" xmlns="http://www.w3.org/2000/svg">
<path d="M18.6879 13.2043L15.0798 9.92201H13.1954C14.5873 8.89802 15.4791 7.33266 15.4791 5.58113C15.4791 2.5037 12.7269 0 9.34386 0C5.96086 0 3.20857 2.5037 3.20857 5.58113C3.20857 7.33266 4.10037 8.89802 5.49235 9.92201H3.6115L0 13.2041L0.963603 14.0815L3.21148 12.0387L3.20834 21.167H15.4791V12.0392L17.7239 14.0812L18.6879 13.2043ZM4.57197 5.58113C4.57197 3.18757 6.71264 1.24025 9.34386 1.24025C11.9751 1.24025 14.1157 3.18757 14.1157 5.58113C14.1157 7.97469 11.9751 9.92201 9.34386 9.92201C6.71264 9.92201 4.57197 7.97469 4.57197 5.58113ZM4.57215 19.9267L4.5751 11.1623H8.66211V13.6428H10.0255V11.1623H14.1157V19.9267H4.57215Z" fill="#231F20"/>
<path d="M8.66228 5.94437L7.78089 5.14259L6.81683 6.01961L8.66228 7.69833L11.8711 4.77937L10.907 3.90234L8.66228 5.94437Z" fill="#231F20"/>
</svg>
