<svg width="15" height="15" viewBox="0 0 15 15" fill="none" xmlns="http://www.w3.org/2000/svg">
<path d="M13.7384 4.76186V2.7591H10.2698L9.74581 2.45691V1.26189C9.74094 0.572837 9.1784 0.018216 8.48934 0.0230819C7.89639 0.0272616 7.38827 0.448226 7.27392 1.03008L5.48975 0L3.89723 2.7591H2.75885V4.73042L0 9.51075L2.75885 11.1033V13.7386H7.32533L9.51125 15.0005L10.2386 13.7386H13.7384V7.67492L15 5.48925L13.7384 4.76186ZM13.2393 3.25817V4.4729L11.1342 3.25817H13.2393ZM7.74953 1.26189C7.74953 0.848448 8.08469 0.513292 8.49814 0.513292C8.91158 0.513292 9.24674 0.848448 9.24674 1.26189V2.16895L7.74953 1.30456V1.26189ZM3.25792 3.25817H3.60901L3.25792 3.86653V3.25817ZM3.25792 13.2395V11.3912L6.45969 13.2395H3.25792ZM13.2393 13.2395H10.5271L13.2393 8.54031V13.2395ZM9.32759 14.3185L0.681727 9.32784L5.67241 0.681977L9.24674 2.74513V3.75724C9.24674 4.17068 8.91158 4.50584 8.49814 4.50584C8.08469 4.50584 7.74953 4.17068 7.74953 3.75724V2.26003H7.25047V3.75724C7.25047 4.44629 7.80908 5.00491 8.49814 5.00491C9.18719 5.00491 9.74581 4.44629 9.74581 3.75724V3.03359L14.3183 5.67241L9.32759 14.3185Z" fill="#231F20"/>
<path d="M8.74757 3.5077C8.60976 3.5077 8.49803 3.39597 8.49803 3.25816V2.75909H7.99896V3.25816C7.99896 3.67161 8.33412 4.00677 8.74757 4.00677H8.9971V3.5077H8.74757Z" fill="#231F20"/>
<path d="M5.92874 5.29679L5.67926 5.72903L9.56945 7.97439L9.81893 7.54215L5.92874 5.29679Z" fill="#231F20"/>
<path d="M5.18044 6.66056L4.93091 7.09276L8.82062 9.33855L9.07015 8.90636L5.18044 6.66056Z" fill="#231F20"/>
<path d="M4.43215 8.02522L4.18262 8.45741L8.07233 10.7032L8.32186 10.271L4.43215 8.02522Z" fill="#231F20"/>
</svg>
