<svg width="19" height="14" viewBox="0 0 19 14" fill="none" xmlns="http://www.w3.org/2000/svg">
<path d="M5.23141 11.1644H2.2019V5.00204C2.2019 4.84868 2.33856 4.72437 2.50715 4.72437H4.92616C5.09475 4.72437 5.23141 4.84868 5.23141 5.00204V11.1644Z" fill="#A751D4"/>
<path d="M10.8588 11.1644H7.82928V3.78732C7.82928 3.63396 7.96594 3.50964 8.13453 3.50964H10.5535C10.7221 3.50964 10.8588 3.63396 10.8588 3.78732V11.1644Z" fill="#A751D4"/>
<path d="M16.4862 11.1644H13.4567V5.44479C13.4567 5.29143 13.5933 5.16711 13.7619 5.16711H16.1809C16.3495 5.16711 16.4862 5.29143 16.4862 5.44479V11.1644Z" fill="#A751D4"/>
<path d="M18.1393 13.1416H0.548677C0.245661 13.1416 0 12.9181 0 12.6425C0 12.3668 0.245661 12.1434 0.548677 12.1434H18.1393C18.4423 12.1434 18.6879 12.3668 18.6879 12.6425C18.6879 12.9181 18.4423 13.1416 18.1393 13.1416Z" fill="#A751D4"/>
<path d="M18.4584 1.89926C18.4766 1.69066 18.3429 1.43451 18.0369 1.36973L16.2641 0.977753C15.9695 0.912435 15.6729 1.07698 15.6014 1.34484C15.5298 1.6127 15.7105 1.88262 16.0049 1.94771L16.5063 2.05858L15.085 2.85647L9.69563 0.0653971C9.54069 -0.0148945 9.35238 -0.0216492 9.19107 0.047329L3.834 2.33469L1.27314 0.880791C1.01611 0.734749 0.677647 0.80609 0.517177 1.03994C0.356744 1.27376 0.435095 1.58165 0.692169 1.72763L3.50637 3.32531C3.66428 3.41498 3.86144 3.4257 4.02999 3.35373L9.3999 1.06087L14.8248 3.87041C14.966 3.93776 15.1628 3.97267 15.3845 3.8614L17.1075 2.89414L16.9927 3.38301C16.8665 4.03329 17.8784 4.21797 18.0659 3.59151L18.4462 1.97123C18.4505 1.94851 18.4522 1.9517 18.4584 1.89926Z" fill="#A751D4"/>
</svg>
