<svg width="19" height="16" viewBox="0 0 19 16" fill="none" xmlns="http://www.w3.org/2000/svg">
<path d="M17.2504 4.57693H18.688V7.19232H17.2504V4.57693Z" fill="#231F20"/>
<path d="M0 4.57693H1.43754V7.19232H0V4.57693Z" fill="#231F20"/>
<path d="M12.2191 10.4615H13.6566V11.7692H12.2191V10.4615Z" fill="#231F20"/>
<path d="M5.03137 10.4615H6.4689V11.7692H5.03137V10.4615Z" fill="#231F20"/>
<path d="M12.9378 0H5.75015C4.79735 0.00103822 3.88391 0.345808 3.21018 0.958683C2.53645 1.57156 2.15745 2.4025 2.15631 3.26923V12.4231C2.15669 12.7698 2.30827 13.1022 2.57778 13.3474C2.84728 13.5926 3.2127 13.7304 3.59385 13.7308V15.6923H5.03138V13.7308H13.6566V15.6923H15.0941V13.7308C15.4752 13.7303 15.8405 13.5923 16.11 13.3472C16.3794 13.1021 16.5311 12.7698 16.5317 12.4231V3.26923C16.5305 2.4025 16.1515 1.57156 15.4778 0.958683C14.8041 0.345808 13.8906 0.00103822 12.9378 0ZM15.0941 3.92308V7.84616H3.59385V3.92308H15.0941ZM5.75015 1.30769H12.9378C13.3823 1.30889 13.8155 1.43524 14.1779 1.66939C14.5403 1.90353 14.8142 2.23399 14.9619 2.61539H3.7261C3.87377 2.23399 4.14762 1.90353 4.51002 1.66939C4.87243 1.43524 5.30564 1.30889 5.75015 1.30769ZM3.59385 12.4231V9.15385H15.0948L15.0956 12.4231H3.59385Z" fill="#231F20"/>
</svg>
